HIERARCHY
ROOT hip
{
  OFFSET 0 0 0
  CHANNELS 6 Xposition Yposition Zposition Zrotation Yrotation Xrotation
  JOINT abdomen
  {
    OFFSET 0 20.6881 -0.73152
    CHANNELS 3 Zrotation Xrotation Yrotation
    JOINT chest
    {
      OFFSET 0 11.7043 -0.48768
      CHANNELS 3 Zrotation Xrotation Yrotation
      JOINT neck
      {
        OFFSET 0 22.1894 -2.19456
        CHANNELS 3 Zrotation Xrotation Yrotation
        JOINT head
        {
          OFFSET -0.24384 7.07133 1.2192
          CHANNELS 3 Zrotation Xrotation Yrotation
          JOINT leftEye
          {
            OFFSET 4.14528 8.04674 8.04672
            CHANNELS 3 Zrotation Xrotation Yrotation
            End Site
            {
              OFFSET 1 0 0
            }
          }
          JOINT rightEye
          {
            OFFSET -3.6576 8.04674 8.04672
            CHANNELS 3 Zrotation Xrotation Yrotation
            End Site
            {
              OFFSET 1 0 0
            }
          }
        }
      }
      JOINT rCollar
      {
        OFFSET -2.68224 19.2634 -4.8768
        CHANNELS 3 Zrotation Xrotation Yrotation
        JOINT rShldr
        {
          OFFSET -8.77824 -1.95073 1.46304
          CHANNELS 3 Zrotation Xrotation Yrotation
          JOINT rForeArm
          {
            OFFSET -28.1742 -1.7115 0.48768
            CHANNELS 3 Zrotation Xrotation Yrotation
            JOINT rHand
            {
              OFFSET -22.5879 0.773209 7.07136
              CHANNELS 3 Zrotation Xrotation Yrotation
              JOINT rThumb1
              {
                OFFSET -1.2192 -0.487915 3.41376
                CHANNELS 3 Zrotation Xrotation Yrotation
                JOINT rThumb2
                {
                  OFFSET -3.37035 -0.52449 3.41376
                  CHANNELS 3 Zrotation Xrotation Yrotation
                  End Site
                  {
                    OFFSET -1.78271 -1.18214 1.43049
                  }
                }
              }
              JOINT rIndex1
              {
                OFFSET -7.75947 0.938293 5.60832
                CHANNELS 3 Zrotation Xrotation Yrotation
                JOINT rIndex2
                {
                  OFFSET -2.54057 -0.884171 1.56538
                  CHANNELS 3 Zrotation Xrotation Yrotation
                  End Site
                  {
                    OFFSET -1.62519 -0.234802 1.16502
                  }
                }
              }
              JOINT rMid1
              {
                OFFSET -8.24714 1.18213 3.41376
                CHANNELS 3 Zrotation Xrotation Yrotation
                JOINT rMid2
                {
                  OFFSET -3.10165 -0.590103 1.0647
                  CHANNELS 3 Zrotation Xrotation Yrotation
                  End Site
                  {
                    OFFSET -2.48547 -0.328903 0.83742
                  }
                }
              }
              JOINT rRing1
              {
                OFFSET -8.82822 0.546677 1.51678
                CHANNELS 3 Zrotation Xrotation Yrotation
                JOINT rRing2
                {
                  OFFSET -2.60934 -0.819778 -0.0198488
                  CHANNELS 3 Zrotation Xrotation Yrotation
                  End Site
                  {
                    OFFSET -2.33842 -0.294052 0.168128
                  }
                }
              }
              JOINT rPinky1
              {
                OFFSET -8.27202 -0.0477905 -0.4584
                CHANNELS 3 Zrotation Xrotation Yrotation
                JOINT rPinky2
                {
                  OFFSET -1.82734 -0.647385 -0.700984
                  CHANNELS 3 Zrotation Xrotation Yrotation
                  End Site
                  {
                    OFFSET -1.69225 -0.51767 -0.607171
                  }
                }
              }
            }
          }
        }
      }
      JOINT lCollar
      {
        OFFSET 2.68224 19.2634 -4.8768
        CHANNELS 3 Zrotation Xrotation Yrotation
        JOINT lShldr
        {
          OFFSET 8.77824 -1.95073 1.46304
          CHANNELS 3 Zrotation Xrotation Yrotation
          JOINT lForeArm
          {
            OFFSET 28.1742 -1.7115 0.48768
            CHANNELS 3 Zrotation Xrotation Yrotation
            JOINT lHand
            {
              OFFSET 22.5879 0.773209 7.07136
              CHANNELS 3 Zrotation Xrotation Yrotation
              JOINT lThumb1
              {
                OFFSET 1.2192 -0.487915 3.41376
                CHANNELS 3 Zrotation Xrotation Yrotation
                JOINT lThumb2
                {
                  OFFSET 3.37035 -0.52449 3.41376
                  CHANNELS 3 Zrotation Xrotation Yrotation
                  End Site
                  {
                    OFFSET 1.78271 -1.18214 1.43049
                  }
                }
              }
              JOINT lIndex1
              {
                OFFSET 7.75947 0.938293 5.60832
                CHANNELS 3 Zrotation Xrotation Yrotation
                JOINT lIndex2
                {
                  OFFSET 2.54057 -0.884171 1.56538
                  CHANNELS 3 Zrotation Xrotation Yrotation
                  End Site
                  {
                    OFFSET 1.62519 -0.234802 1.16502
                  }
                }
              }
              JOINT lMid1
              {
                OFFSET 8.24714 1.18213 3.41376
                CHANNELS 3 Zrotation Xrotation Yrotation
                JOINT lMid2
                {
                  OFFSET 3.10165 -0.590103 1.0647
                  CHANNELS 3 Zrotation Xrotation Yrotation
                  End Site
                  {
                    OFFSET 2.48547 -0.328903 0.83742
                  }
                }
              }
              JOINT lRing1
              {
                OFFSET 8.82822 0.546677 1.51678
                CHANNELS 3 Zrotation Xrotation Yrotation
                JOINT lRing2
                {
                  OFFSET 2.60934 -0.819778 -0.0198488
                  CHANNELS 3 Zrotation Xrotation Yrotation
                  End Site
                  {
                    OFFSET 2.33842 -0.294052 0.168128
                  }
                }
              }
              JOINT lPinky1
              {
                OFFSET 8.27202 -0.0477905 -0.4584
                CHANNELS 3 Zrotation Xrotation Yrotation
                JOINT lPinky2
                {
                  OFFSET 1.82734 -0.647385 -0.700984
                  CHANNELS 3 Zrotation Xrotation Yrotation
                  End Site
                  {
                    OFFSET 1.69225 -0.51767 -0.607171
                  }
                }
              }
            }
          }
        }
      }
    }
  }
  JOINT rButtock
  {
    OFFSET -8.77824 4.35084 1.2192
    CHANNELS 3 Zrotation Xrotation Yrotation
    JOINT rThigh
    {
      OFFSET 0 -1.70687 -2.19456
      CHANNELS 3 Zrotation Xrotation Yrotation
      JOINT rShin
      {
        OFFSET 0 -36.8199 0.73152
        CHANNELS 3 Zrotation Xrotation Yrotation
        JOINT rFoot
        {
          OFFSET 0.73152 -45.1104 -5.12064
          CHANNELS 3 Zrotation Xrotation Yrotation
          End Site
          {
            OFFSET -1.1221 -3.69964 12.103
          }
        }
      }
    }
  }
  JOINT lButtock
  {
    OFFSET 8.77824 4.35084 1.2192
    CHANNELS 3 Zrotation Xrotation Yrotation
    JOINT lThigh
    {
      OFFSET 0 -1.70687 -2.19456
      CHANNELS 3 Zrotation Xrotation Yrotation
      JOINT lShin
      {
        OFFSET 0 -36.8199 0.73152
        CHANNELS 3 Zrotation Xrotation Yrotation
        JOINT lFoot
        {
          OFFSET -0.73152 -45.1104 -5.12064
          CHANNELS 3 Zrotation Xrotation Yrotation
          End Site
          {
            OFFSET 1.1221 -3.69964 12.103
          }
        }
      }
    }
  }
}
MOTION
Frames:	7
Frame Time:	0.03333
75.456 69.391 19.7921 159.510442 79.240601 156.472908 -12.590057 6.987957 -121.688014 3.530117 4.512764 131.126461 -10.01736 14.977467 -11.652619 14.009825 -21.835086 -22.624958 0.001224 0.0 0.000592 0.001224 0.0 0.000592 -144.037604 -81.930632 -167.450988 -92.98171 14.917825 151.457192 46.074271 84.71821 -165.461015 158.157572 -32.921273 140.6307 -0.061823 0.060121 0.009336 -165.504259 -73.936742 113.404602 -22.20868 26.742378 15.811456 -100.037477 45.579763 76.158556 -19.552996 38.332487 14.847496 5.005973 -4.926139 -0.559783 0.002787 0.234097 0.074749 9.158919 13.239172 1.740114 13.649011 46.949662 11.163157 4.610039 8.605214 2.035117 -3.89227 -58.802566 12.021379 -94.681202 33.895219 96.121081 -179.511607 -8.760794 -38.107101 143.929455 31.559625 -126.868623 7.021773 6.757771 -1.48194 -5.176173 -4.753988 -0.587808 31.946257 33.464179 -23.913554 125.6209 34.452553 -95.133066 -0.030557 -0.085962 0.016569 37.009553 56.459896 -31.401716 145.114306 -0.336778 179.021196 153.470867 -17.655593 176.683507 156.251354 53.232937 150.055786 -2.667006 2.739211 0.894661 0.000951 -0.001065 -4.2e-05 -42.76283 -51.044788 -61.14001 -54.862709 54.94458 -37.713198 156.981522 32.918068 -88.320742 -0.001954 -0.000728 0.000263 7.861992 0.244833 95.981792 62.876508 0.184846 92.387525 139.714779 33.606762 133.998994
75.916 69.45400000000001 20.0239 161.144114 79.308845 158.193458 -14.394784 10.682381 4.898755 3.254593 -9.266562 5.373148 -3.046785 33.850013 177.792976 -4.504364 42.814714 146.664107 -0.002914 0.0 -0.002216 -0.001751 -0.0 0.003109 -157.851977 -65.780089 175.502158 70.685413 4.164327 9.95325 -13.602834 73.927326 104.827707 -8.129264 39.430862 3.407431 2.385076 -2.368582 -0.317973 -53.618513 29.757226 47.66498 -162.955253 -37.990615 122.625853 -168.109333 -32.597604 117.946668 -162.741406 -13.181613 144.117448 9.801637 -19.877027 -1.134478 -145.075935 5.483737 179.145163 -144.484182 -52.859904 -166.302346 -147.457313 19.639641 -143.808999 1.544475 -1.526546 -2.46454 158.999651 -56.584613 -172.46977 56.769546 10.883652 10.644392 -79.10987 -38.573824 97.667126 71.39047 50.141182 -52.681186 19.483224 17.388296 -5.888473 32.038932 17.868983 -35.794214 -20.960654 -37.374934 5.932524 -13.954635 2.248296 1.945884 -2.090703 -6.273028 1.076576 167.652188 -18.275512 -144.257791 145.11574 -0.175566 179.072694 -12.016897 32.311742 5.341321 -12.992926 44.359249 -10.763633 146.642916 7.002849 142.182005 179.999537 75.749222 -0.000638 152.36848 13.94688 91.521267 76.6649 0.872493 81.775349 3.232999 12.476801 -158.029581 0.007878 0.001408 0.004101 10.468506 1.432267 -86.212096 -61.577381 -1.500274 -101.743211 -63.730831 -21.020566 -148.730513
76.2849 69.4959 20.2015 162.174899 79.077192 159.386319 -12.697575 10.550538 -30.081411 6.439292 -6.315592 40.140446 -15.344409 20.280719 -53.976618 32.145688 -4.657345 18.695315 -0.002253 0.0 -0.002773 -0.001805 0.0 -0.001039 -140.388108 43.675691 144.651252 114.497517 39.896543 -113.312147 176.218803 -71.147327 49.629477 156.427099 -35.836406 139.293901 163.217283 -31.48123 84.506371 -112.026545 25.30544 54.2207 -177.753573 -56.937643 117.939398 4.708079 18.624484 -4.567049 -15.694839 33.352102 11.526064 -164.199085 -7.984452 143.623214 0.006039 1.346325 0.421968 -41.899177 77.017025 54.990749 -131.884871 -19.121415 -129.425547 -144.793899 5.57696 -140.352028 159.102464 -41.778851 -169.127521 68.540026 49.807901 -9.627187 -157.910532 37.307922 55.403234 18.254235 -16.215935 3.505181 167.021993 -4.696174 -89.800519 -94.108201 -64.129637 -70.049131 -13.82172 -24.764901 5.469532 162.341039 -19.050866 -110.738072 155.185347 8.998949 -140.124323 171.180581 -28.458996 -143.814268 145.116207 -0.138114 179.087036 142.216201 -55.906691 164.410459 114.42545 -38.858496 112.424897 11.861051 -28.266129 14.664713 -179.986594 75.750639 -0.012094 154.708548 14.577866 -72.62797 -76.663054 13.49102 -93.450031 -110.820812 14.332666 178.839994 0.003662 -0.000997 0.004516 10.836054 2.224624 -92.327435 -59.859991 -4.744408 -114.281963 165.203627 46.488886 100.707122
76.5949 69.5107 20.3416 161.444096 78.490979 158.90551 -12.445359 7.327975 -122.542489 3.668582 4.326485 131.566206 -15.838016 21.905812 -62.523653 34.049701 -0.346442 25.967998 -0.000159 -0.0 0.003116 0.005447 0.0 0.001934 -155.231073 -1.769916 161.463784 78.675589 33.758954 -49.553301 -168.209076 -76.20804 64.769798 154.139631 -39.498049 137.344312 -1.341472 1.319898 0.220288 -170.830117 -75.541671 108.737378 -169.273296 -47.395683 121.441013 -96.172558 53.576596 79.385618 -171.553867 -40.249393 145.208844 -119.538097 56.944389 109.387904 -145.109804 -0.748612 -178.891796 7.351774 -24.404369 -12.764095 11.770887 39.507393 9.944087 -7.678134 -20.83222 -8.650713 -2.616991 -19.715792 3.948363 -24.427662 -21.311494 57.767525 -176.744532 -80.161195 -32.374369 147.705772 27.495266 -130.356743 7.469721 7.171646 -1.602968 -2.091651 -1.087219 -3.161249 -12.443464 -22.207507 5.174846 155.575642 -8.72933 -110.828139 176.018745 -50.86037 -144.002207 13.032298 35.268047 -10.450078 145.112769 -0.589812 178.942492 -12.187676 41.066562 4.322817 158.837012 62.442919 150.945635 1.070888 -6.267926 3.683114 0.019784 -0.000168 0.016604 -44.040446 -50.246778 -7.217222 60.899305 47.063602 33.655728 -148.306864 -22.70954 108.070523 -179.998019 75.749813 -0.002758 -141.974419 76.027813 31.952838 55.300999 22.966626 110.745118 141.788168 28.371205 137.537282
76.86 69.5039 20.4589 159.792799 77.826965 157.565018 -12.81585 9.062606 -81.700399 7.274573 0.50149 90.360581 -16.218501 24.163887 -74.183399 35.762881 5.755699 35.732221 -0.001762 0.0 -0.002704 -0.000681 -0.0 0.002617 -151.795751 15.48825 157.162496 -15.277743 -28.037107 -64.041783 68.217744 -9.450854 -127.22198 -179.695689 27.817581 149.377268 171.892482 -24.726031 87.486779 -140.385966 15.584608 76.139098 -144.773906 -5.284953 118.400218 -164.19078 -18.879958 119.315042 -6.145509 15.982764 3.962568 -163.239246 -4.850987 143.353375 0.005684 1.579451 0.496739 -156.482087 -20.168379 174.222334 -127.986117 -25.025665 -125.667823 -148.710513 17.436227 -143.244277 -2.283614 -68.306491 15.559675 -114.794583 29.146605 115.715757 12.854408 -10.18546 -105.261465 11.560549 -57.155909 14.957398 -6.481474 -6.471128 0.635375 73.066379 30.052332 -64.636086 139.99046 2.599588 -115.77593 166.145552 -20.963956 -118.900743 -13.854781 -42.243138 2.973854 166.049701 -12.898058 -143.959336 145.045263 6.663146 -178.772606 155.706017 -2.889049 178.893066 156.977109 55.954003 150.372281 -125.25083 85.333465 86.312088 -0.006816 -0.000474 -0.007171 -43.177664 -51.379133 -84.3068 -56.125324 41.00641 98.711901 143.12241 -47.878941 17.241941 0.003857 -9.7e-05 0.003682 10.617373 3.168819 -78.118953 -44.827019 6.141216 91.022291 125.148796 9.304374 -19.757547
77.1088 69.5075 20.580000000000002 158.788163 77.248027 156.892211 -13.162304 8.315154 -100.262674 5.991916 2.812313 108.540266 -3.176463 14.969706 22.574088 -8.106027 -22.539676 -62.971708 -0.002873 0.0 -0.000946 -0.002873 0.0 -0.000946 4.0324 -38.534615 -7.422404 73.019747 -19.185541 74.890104 -118.671611 -43.21235 100.637626 109.456895 -65.120862 96.166337 -1.290179 1.269896 0.211841 -146.505784 -55.376888 119.663035 -17.560619 22.605669 12.116258 -173.35328 -26.158743 109.147565 -11.471857 26.671939 8.036825 15.993576 -37.280754 -0.817691 -145.123016 1.369388 -179.557484 -157.237322 53.330842 174.403234 4.968808 14.56765 4.483288 -160.649555 57.951532 -150.044871 159.02232 -56.201531 -172.366565 43.616589 63.719737 16.366856 -116.746419 -47.570074 33.69337 99.129624 52.723323 -80.533773 -176.950457 -20.29237 -88.721006 5.096924 -57.170729 0.71887 -14.62673 -26.246206 5.614768 23.8973 39.07587 -19.19655 -1.272799 -3.780454 0.675837 -9.729941 -20.049942 1.543763 128.348213 58.529467 -150.525661 154.237714 -43.928295 173.806149 144.798403 10.887249 141.4901 -11.576696 26.930512 -4.14036 179.981591 75.749631 0.013852 154.006922 12.978092 -106.893067 -78.09832 -19.862943 -98.659459 -67.245665 0.841193 -171.972975 -0.020612 -0.000383 -0.018113 10.783737 3.17034 -82.887759 -57.468151 1.033966 -97.28793 -112.989445 -27.369092 173.389565
77.3347 69.53240000000001 20.6613 158.90009 76.906109 157.206944 -17.613466 10.255835 52.802871 -2.936643 -9.869213 -44.356069 -15.679913 28.698691 -98.906371 35.733199 18.912625 56.295945 0.001327 -0.0 -0.000428 -0.004278 -0.0 0.000746 -158.776964 -34.742133 167.784077 -105.706215 -8.703718 -164.62625 -122.152888 -80.880334 -37.885209 -6.219816 32.41909 2.461202 -2.572669 2.520187 0.450872 143.104442 -82.108048 68.368985 38.994967 -59.427449 0.352065 -128.418185 26.629695 104.413261 -174.198233 -46.87787 144.625357 -175.21653 -38.422681 143.037981 -0.003959 -0.540998 -0.170814 8.974196 15.511225 2.089763 -155.669963 51.009633 -149.76664 -20.724107 -35.88857 -21.589883 -3.596977 -31.046051 6.02546 105.833183 -13.952596 120.10274 139.402352 -0.236543 66.744731 18.520578 -81.435141 30.525061 8.983387 8.562031 -2.032037 117.313126 -11.242398 -104.469058 -16.310722 -29.313083 5.840923 151.792542 -4.031053 -110.931039 -0.740912 -2.185301 0.401492 -178.554026 -51.777998 -140.519355 0.019924 -1.658394 0.524151 5.614351 -81.946198 26.632261 -14.540824 50.449731 -11.669414 1.739181 -8.463288 3.295005 179.988794 75.748344 0.007685 153.634592 12.360655 -134.46064 -66.963893 -41.38935 -159.663227 -151.364511 26.007169 87.866398 -179.981436 75.75002 -0.013478 -140.128811 76.228794 27.770216 47.455524 14.650615 1.270847 -92.475962 18.076007 -8.383394
